<svg width="123" height="34" viewBox="0 0 123 34" fill="none" xmlns="http://www.w3.org/2000/svg">
<g opacity="0.9">
<path d="M46.4453 4.37908V15.4853C46.4453 18.3444 45.457 20.7636 43.5356 22.6329C41.6687 24.4473 39.4726 25.382 36.8925 25.382C34.0925 25.382 31.6766 24.4473 29.7552 22.523C27.8334 20.6536 26.9004 18.3444 26.9004 15.5953V3.77426C26.9004 2.78458 27.1747 2.06985 27.7237 1.52001C28.2727 0.970212 28.9315 0.695312 29.7004 0.695312C30.4688 0.695312 31.1276 0.970212 31.6217 1.46503C32.1707 2.06985 32.4455 2.83956 32.4455 3.77426V15.6503C32.4455 16.9149 32.8295 17.9595 33.6532 18.7842C34.4766 19.609 35.5197 20.0488 36.7824 20.0488C37.8255 20.0488 38.759 19.6639 39.5823 18.9492C40.4609 18.0694 40.9002 16.9698 40.9002 15.5403V3.77426C40.9002 2.78458 41.1745 2.06985 41.6687 1.52001C42.2177 0.970212 42.8764 0.695312 43.6453 0.695312C44.7433 0.695312 45.5667 1.13515 46.0608 2.06985C46.3355 2.50969 46.4453 3.27944 46.4453 4.37908Z" fill="#5E769A"/>
<path d="M58.4036 0.532227C60.5997 0.532227 62.4114 1.02704 63.9487 1.96174C65.3211 2.89644 66.035 3.88607 66.035 4.98571C66.035 5.86543 65.8152 6.58016 65.3211 7.07502C64.8269 7.56984 64.2779 7.78976 63.5643 7.78976C63.1798 7.78976 62.7409 7.62482 62.3016 7.29494C61.8623 6.96506 61.423 6.63518 61.039 6.30526C60.0507 5.53555 59.1172 5.15065 58.2939 5.15065C57.4702 5.15065 56.8114 5.37061 56.3173 5.81044C55.7683 6.25028 55.5488 6.74514 55.5488 7.34992C55.5488 8.44955 56.5367 9.21931 58.5134 9.71413C61.588 10.4839 63.7289 11.3636 64.9919 12.4082C66.5292 13.6178 67.2977 15.3772 67.2977 17.6315C67.2977 19.8857 66.474 21.7551 64.8822 23.2396C63.29 24.7241 61.2036 25.4388 58.7328 25.4388C56.0978 25.4388 53.9017 24.834 52.0897 23.5695C50.443 22.4149 49.5645 21.0953 49.5645 19.6108C49.5645 18.896 49.7839 18.2363 50.3329 17.7414C50.8271 17.1916 51.431 16.9167 52.145 16.9167C53.0232 16.9167 53.9566 17.4115 55.0546 18.3462C56.427 19.5558 57.69 20.2156 58.7881 20.2156C59.6663 20.2156 60.3799 19.9407 60.9289 19.4459C61.4779 18.951 61.7526 18.2913 61.7526 17.4665C61.7526 16.5868 61.2585 15.927 60.2702 15.4872C59.941 15.3222 58.7328 14.8824 56.5371 14.2776C54.341 13.6178 52.8037 12.903 51.8703 12.0783C50.7174 11.0887 50.1683 9.65915 50.1683 7.84474C50.1683 5.70048 50.9368 3.94105 52.4741 2.6215C53.9566 1.19198 55.9328 0.532227 58.4036 0.532227Z" fill="#5E769A"/>
<path d="M76.0228 3.77426V10.2071H84.9717V3.77426C84.9717 2.78458 85.2464 2.06985 85.7954 1.52001C86.3444 0.970212 87.0032 0.695312 87.8265 0.695312C88.6502 0.695312 89.309 0.970212 89.8031 1.52001C90.3522 2.06985 90.5716 2.83956 90.5716 3.77426V22.1931C90.5716 23.1827 90.2973 23.8975 89.7483 24.4473C89.1993 24.9971 88.5405 25.272 87.7717 25.272C87.0032 25.272 86.3444 24.9971 85.7954 24.4473C85.2464 23.8975 84.9717 23.1277 84.9717 22.1381V15.2654H76.0228V22.1381C76.0228 23.1277 75.7485 23.8425 75.1994 24.4473C74.6504 24.9971 73.9913 25.272 73.2228 25.272C72.4543 25.272 71.7956 24.9971 71.2466 24.4473C70.6976 23.8975 70.4229 23.1277 70.4229 22.1931V3.77426C70.4229 2.78458 70.6976 2.06985 71.2466 1.52001C71.7956 0.970212 72.4543 0.695312 73.2228 0.695312C73.9913 0.695312 74.6504 0.970212 75.1446 1.46503C75.7485 2.01487 76.0228 2.78458 76.0228 3.77426Z" fill="#5E769A"/>
<path d="M111.32 5.86543L104.402 12.6281L112.308 19.9407C113.351 20.9304 113.845 21.81 113.845 22.5798C113.845 23.3496 113.571 24.0093 113.022 24.5042C112.473 24.999 111.814 25.2739 111.045 25.2739C110.277 25.2739 109.453 24.8341 108.52 23.9543L99.2962 15.2672V22.1949C99.2962 23.1846 99.0219 23.8994 98.4729 24.5042C97.9239 25.054 97.2651 25.3289 96.4963 25.3289C95.7278 25.3289 95.069 25.054 94.52 24.5042C93.971 23.9543 93.6963 23.1846 93.6963 22.1949V3.72113C93.6963 2.73146 93.971 1.96174 94.52 1.4119C95.069 0.862105 95.7278 0.587206 96.4963 0.587206C97.2651 0.587206 97.9239 0.862105 98.418 1.35692C98.967 1.96174 99.2414 2.73146 99.2414 3.72113V10.099L107.312 1.96174C108.246 1.02704 109.124 0.532227 109.893 0.532227C110.661 0.532227 111.32 0.807125 111.814 1.30194C112.363 1.85178 112.582 2.45656 112.582 3.22632C112.747 4.05101 112.253 4.93073 111.32 5.86543Z" fill="#5E769A"/>
<path d="M116.976 22.1931V3.77426C116.976 2.78458 117.25 2.06985 117.799 1.52001C118.348 0.970212 119.007 0.695312 119.776 0.695312C120.544 0.695312 121.203 0.970212 121.697 1.46503C122.246 2.06985 122.521 2.83956 122.521 3.77426V22.1931C122.521 23.1827 122.246 23.8975 121.697 24.4473C121.148 24.9971 120.489 25.272 119.721 25.272C118.952 25.272 118.293 24.9971 117.744 24.4473C117.25 23.8975 116.976 23.1277 116.976 22.1931Z" fill="#5E769A"/>
<path d="M2.79996 25.0539C1.26263 25.0539 0 23.7893 0 22.2498V3.72104C0 2.18157 1.26263 0.916992 2.79996 0.916992C4.3373 0.916992 5.59993 2.18157 5.59993 3.72104V22.3048C5.59993 23.8443 4.3373 25.0539 2.79996 25.0539Z" fill="#5E769A"/>
<path d="M28.4461 33.961C27.7325 33.961 27.0737 33.6863 26.5247 33.1914L7.36389 14.6626C6.26585 13.6179 6.21099 11.8585 7.25416 10.7589L16.6972 0.862231C17.7404 -0.237405 19.4972 -0.292384 20.6501 0.752272C21.7481 1.79693 21.803 3.55632 20.7598 4.71094L13.2385 12.5733L30.4227 29.1778C31.5208 30.2225 31.5756 32.0369 30.4776 33.1365C29.9286 33.6863 29.215 33.961 28.4461 33.961Z" fill="#5E769A"/>
</g>
</svg>
