<svg width="104" height="36" viewBox="0 0 104 36" fill="none" xmlns="http://www.w3.org/2000/svg">
<g opacity="0.9">
<path d="M5.67171 9.16797H0.709961V27.3948H5.67171V9.16797Z" fill="#5E769A"/>
<path d="M5.36679 0.964076C5.06301 0.660295 4.75923 0.457774 4.35419 0.255254C3.94915 0.0527332 3.54411 0.0527344 3.13906 0.0527344C2.73402 0.0527344 2.32899 0.153993 1.92395 0.255254C1.5189 0.457774 1.21512 0.660295 0.911343 0.964076C0.607563 1.26786 0.405038 1.57164 0.202517 1.97668C-3.09323e-06 2.38172 0 2.78676 0 3.1918C0 3.59684 0.101257 4.00188 0.202517 4.40692C0.405038 4.81196 0.607563 5.11575 0.911343 5.41953C1.21512 5.72331 1.5189 5.92583 1.92395 6.12835C2.32899 6.33087 2.73402 6.33087 3.13906 6.33087C3.54411 6.33087 3.94915 6.22961 4.35419 6.12835C4.75923 5.92583 5.06301 5.72331 5.36679 5.41953C5.67057 5.11575 5.87309 4.81196 6.07561 4.40692C6.27813 4.00188 6.27813 3.59684 6.27813 3.1918C6.27813 2.78676 6.17687 2.38172 6.07561 1.97668C5.87309 1.57164 5.56931 1.26786 5.36679 0.964076Z" fill="#5E769A"/>
<path d="M34.6314 0.966029C34.3277 0.662248 34.0239 0.459727 33.6188 0.257207C33.2138 0.0546863 32.8088 0.0546875 32.4037 0.0546875C31.9987 0.0546875 31.5936 0.155947 31.1886 0.257207C30.7836 0.459727 30.4798 0.662248 30.176 0.966029C29.8722 1.26981 29.6697 1.57359 29.4672 1.97863C29.2646 2.38367 29.2646 2.78871 29.2646 3.19375C29.2646 3.59879 29.3659 4.00384 29.4672 4.40888C29.6697 4.81392 29.8722 5.1177 30.176 5.42148C30.4798 5.72526 30.7836 5.92778 31.1886 6.1303C31.5936 6.33282 31.9987 6.33282 32.4037 6.33282C32.8088 6.33282 33.2138 6.23156 33.6188 6.1303C34.0239 5.92778 34.3277 5.72526 34.6314 5.42148C34.9352 5.1177 35.1377 4.81392 35.3403 4.40888C35.5428 4.00384 35.5428 3.59879 35.5428 3.19375C35.5428 2.78871 35.4415 2.38367 35.3403 1.97863C35.1377 1.57359 34.9352 1.26981 34.6314 0.966029Z" fill="#5E769A"/>
<path d="M34.9334 9.16797H29.9717V27.3948H34.9334V9.16797Z" fill="#5E769A"/>
<path d="M55.6936 11.4948C54.8835 10.6847 53.9722 9.97587 52.8583 9.46956C51.7444 8.96326 50.6306 8.76074 49.3142 8.76074C48.0991 8.76074 46.9852 8.96326 46.0739 9.46956C45.1625 9.97587 44.4537 10.5834 43.8461 11.2922V9.26704H39.0869V35.0884H43.9474V25.6712C44.555 26.38 45.2638 26.9876 46.1751 27.3926C47.0865 27.7977 48.0991 28.0002 49.3142 28.0002C50.5293 28.0002 51.7444 27.7977 52.8583 27.2914C53.9722 26.7851 54.8835 26.1775 55.6936 25.2662C56.5037 24.4561 57.1112 23.4435 57.5163 22.2283C57.9213 21.0132 58.2251 19.7981 58.2251 18.3805C58.2251 16.9628 58.0226 15.7477 57.5163 14.5326C57.1112 13.3175 56.5037 12.3049 55.6936 11.4948ZM52.8583 20.3044C52.6558 20.912 52.352 21.4183 51.947 21.9246C51.5419 22.3296 51.0356 22.7347 50.4281 23.0384C49.8205 23.3422 49.2129 23.4435 48.5041 23.4435C47.7953 23.4435 47.1877 23.3422 46.5802 23.0384C45.9726 22.8359 45.4663 22.4309 45.0613 22.0258C44.6562 21.6208 44.3524 21.0132 44.1499 20.4057C43.9474 19.7981 43.8461 19.0893 43.8461 18.3805C43.8461 17.6716 43.9474 16.9628 44.1499 16.3553C44.3524 15.7477 44.6562 15.2414 45.0613 14.7351C45.4663 14.3301 45.9726 13.925 46.5802 13.7225C47.1877 13.52 47.7953 13.3175 48.5041 13.3175C49.2129 13.3175 49.9218 13.4187 50.4281 13.7225C51.0356 14.0263 51.5419 14.3301 51.947 14.8364C52.352 15.2414 52.6558 15.849 52.8583 16.4565C53.0608 17.0641 53.1621 17.7729 53.1621 18.3805C53.1621 18.988 53.0608 19.6968 52.8583 20.3044Z" fill="#5E769A"/>
<path d="M75.2403 11.1907C74.6327 10.4819 73.9239 9.8743 73.0126 9.368C72.1012 8.8617 71.0886 8.65918 69.7722 8.65918C68.5571 8.65918 67.342 8.8617 66.2281 9.368C65.1142 9.8743 64.2029 10.4819 63.3928 11.3932C62.5828 12.2033 61.9752 13.2159 61.5701 14.431C61.1651 15.6461 60.8613 16.8613 60.8613 18.2789C60.8613 19.6965 61.0638 20.9117 61.5701 22.1268C61.9752 23.3419 62.684 24.3545 63.3928 25.1646C64.2029 25.9747 65.1142 26.6835 66.2281 27.1898C67.342 27.6961 68.4558 27.8986 69.7722 27.8986C70.9873 27.8986 72.1012 27.6961 73.0126 27.1898C73.9239 26.6835 74.6327 26.1772 75.2403 25.3671V27.3923H79.9995V9.16548H75.2403V11.1907ZM75.0378 20.3041C74.8352 20.9117 74.5314 21.418 74.1264 21.9243C73.7214 22.3293 73.2151 22.7343 72.6075 22.9369C71.9999 23.1394 71.3924 23.3419 70.6836 23.3419C69.9747 23.3419 69.3672 23.2407 68.7596 22.9369C68.1521 22.6331 67.6457 22.3293 67.2407 21.823C66.8357 21.418 66.5319 20.8104 66.3294 20.2028C66.1269 19.5953 66.0256 18.8865 66.0256 18.2789C66.0256 17.5701 66.1269 16.9625 66.3294 16.355C66.5319 15.7474 66.8357 15.2411 67.2407 14.7348C67.6457 14.3298 68.1521 13.9247 68.7596 13.6209C69.3672 13.3171 69.9747 13.2159 70.6836 13.2159C71.3924 13.2159 71.9999 13.3171 72.6075 13.6209C73.2151 13.8234 73.7214 14.2285 74.1264 14.6335C74.5314 15.0386 74.8352 15.6461 75.0378 16.2537C75.2403 16.8613 75.3415 17.5701 75.3415 18.2789C75.3415 18.9877 75.2403 19.6965 75.0378 20.3041Z" fill="#5E769A"/>
<path d="M97.7223 9.16797L92.8618 18.5852L87.7988 9.16797H82.2295L90.1278 23.5469L83.7484 35.0906H89.1152L103.089 9.16797H97.7223Z" fill="#5E769A"/>
<path d="M15.3946 23.3424L17.3185 21.5197L15.1921 17.9756L9.52148 23.3424L10.5341 27.3928L26.0269 27.494L25.0143 23.3424H15.3946Z" fill="#5E769A"/>
<path d="M26.0213 13.4202L25.0087 9.26855H9.9209L11.0348 13.319L20.1482 13.4202L18.2242 15.1416L20.2494 18.787L26.0213 13.4202Z" fill="#5E769A"/>
</g>
</svg>
