<svg width="130" height="35" viewBox="0 0 130 35" fill="none" xmlns="http://www.w3.org/2000/svg">
<g opacity="0.9">
<path d="M128.523 5.76703C126.36 3.6253 122.877 3.6253 120.714 5.76703C119.005 8.01694 119.005 11.1538 120.714 13.4037C122.877 15.5238 126.36 15.5238 128.523 13.4037C130.232 11.1538 130.232 8.01694 128.523 5.76703ZM126.382 11.9326C125.538 12.9278 124.045 13.036 123.05 12.1922C122.964 12.1057 122.877 12.0192 122.79 11.9326C121.947 10.4832 121.947 8.68758 122.79 7.21649C123.634 6.22134 125.127 6.11317 126.122 6.97852C126.209 7.06506 126.295 7.12996 126.36 7.21649C127.225 8.68758 127.225 10.4615 126.382 11.9326ZM106.587 4.88005C105.657 4.42574 104.64 4.20941 103.601 4.20941C102.238 4.05797 100.897 4.57718 99.9453 5.5507C99.4693 6.19971 99.2097 6.95689 99.1881 7.7357H101.763C101.806 7.38956 101.936 7.06506 102.13 6.80545C102.498 6.45931 102.974 6.28624 103.472 6.32951C103.926 6.30788 104.359 6.39441 104.77 6.56748C105.072 6.74055 105.246 7.08669 105.202 7.43283C105.202 7.77897 104.964 8.10347 104.618 8.19001C104.294 8.31981 103.948 8.38471 103.601 8.42798L102.693 8.53615C101.871 8.60105 101.07 8.83902 100.335 9.20679C99.3612 9.74763 98.7987 10.8077 98.8636 11.9326C98.8203 12.7763 99.1448 13.5984 99.7722 14.1825C100.421 14.7017 101.243 14.983 102.087 14.983C107.906 15.2426 107.842 11.9326 107.885 11.2187V7.38956C108.036 6.37278 107.517 5.35599 106.587 4.88005ZM105.246 10.6779C105.31 11.3702 105.029 12.0624 104.488 12.5167C104.012 12.8413 103.45 13.0143 102.887 13.0143C102.541 13.0143 102.217 12.9062 101.957 12.7114C101.676 12.4518 101.525 12.0841 101.568 11.6947C101.546 11.2404 101.784 10.7861 102.195 10.5697C102.585 10.375 102.996 10.2668 103.428 10.2019L104.034 10.0938C104.272 10.0505 104.51 9.98561 104.748 9.9207C104.921 9.8558 105.094 9.76927 105.267 9.6611L105.246 10.6779ZM93.3254 6.48095C93.8879 6.43768 94.4287 6.67565 94.7965 7.10832C95.0128 7.4112 95.1426 7.75733 95.2075 8.1251H98.0848C98.0632 6.93525 97.5007 5.8103 96.5704 5.07476C95.5753 4.46902 94.4287 4.16614 93.2605 4.23104C91.8759 4.14451 90.513 4.68535 89.5395 5.6805C88.5876 6.80545 88.09 8.25491 88.1982 9.74763C88.1333 11.1106 88.566 12.4518 89.4097 13.5119C90.3832 14.5503 91.7894 15.0912 93.2172 14.9614C94.7316 15.0695 96.181 14.3989 97.1329 13.209C97.6521 12.56 97.9766 11.7596 98.0632 10.9159H95.1859C95.1426 11.3918 94.9695 11.8461 94.6883 12.2355C94.3205 12.6033 93.8013 12.798 93.2821 12.7331C92.4384 12.7764 91.6596 12.2571 91.4 11.4567C91.2053 10.8726 91.0971 10.2668 91.1187 9.6611C91.0971 9.03372 91.1836 8.38471 91.4 7.77897C91.6596 6.97852 92.46 6.43768 93.3254 6.48095ZM87.3761 4.25267C81.4701 4.25267 81.8379 9.4664 81.8379 9.4664V14.7667H84.5205V9.7909C84.4772 9.16352 84.5854 8.55778 84.8233 7.97367C85.2776 7.23813 86.1214 6.84872 86.9867 6.95689H87.3112H87.7655V4.23104H87.5275L87.3761 4.25267ZM77.5761 11.9975C77.4679 12.149 77.3597 12.2788 77.2083 12.4086C76.7756 12.7115 76.2348 12.8629 75.7156 12.8196C75.218 12.8413 74.7204 12.7331 74.2877 12.4735C73.5738 11.9975 73.1628 11.1971 73.206 10.3534H80.6048C80.6264 9.68273 80.6048 8.99046 80.5182 8.31981C80.4101 7.56263 80.1288 6.84872 79.6962 6.22134C79.2635 5.57233 78.6577 5.03149 77.9438 4.72862C77.1866 4.40411 76.3862 4.23104 75.5641 4.25267C74.2012 4.20941 72.9032 4.70698 71.9297 5.65886C70.9345 6.76218 70.4153 8.23328 70.5235 9.726C70.3937 11.2404 70.9561 12.7547 72.0811 13.7931C73.0979 14.6152 74.3526 15.0695 75.6723 15.0479C77.1001 15.1344 78.5063 14.5936 79.5014 13.5552C79.9341 13.1225 80.2586 12.6033 80.4317 12.0192L77.5761 11.9975ZM73.9849 7.00016C74.4175 6.58912 74.98 6.39441 75.5641 6.41604C76.1482 6.39441 76.6891 6.58911 77.1434 6.95689C77.5977 7.36793 77.8573 7.95203 77.8573 8.55778H73.271C73.3359 7.9953 73.5955 7.45446 73.9849 7.00016ZM69.4634 14.7667H67.0621V8.60105C67.1702 7.64917 66.478 6.80545 65.5477 6.71891C65.4612 6.71891 65.353 6.69728 65.2665 6.71891C64.2713 6.69728 63.4493 7.47609 63.406 8.47124C63.406 8.51451 63.406 8.57942 63.406 8.62268V14.7667H60.9614V8.60105C61.0695 7.6708 60.3989 6.82708 59.4687 6.71891C59.3821 6.71891 59.274 6.69728 59.1874 6.71891C58.1923 6.67565 57.3702 7.45446 57.3269 8.42798C57.3269 8.49288 57.3269 8.55778 57.3269 8.62268V14.7667H54.8607V8.66595C54.7092 6.35114 56.4616 4.36084 58.7764 4.20941C58.9062 4.20941 59.036 4.20941 59.1442 4.20941C60.334 4.18777 61.459 4.70698 62.1945 5.63723C62.9517 4.72861 64.055 4.20941 65.2449 4.20941C67.9058 4.20941 69.4851 6.04827 69.4851 8.66595V14.7667H69.4634ZM118.615 1.07252C118.615 1.07252 115.933 0.791283 115.933 2.95465V5.8103C115.651 5.33436 115.24 4.94495 114.764 4.68535C114.267 4.40411 113.704 4.27431 113.12 4.27431C111.887 4.23104 110.697 4.79352 109.918 5.76703C109.053 6.97852 108.642 8.44961 108.729 9.9207C108.664 11.262 109.096 12.5816 109.94 13.6201C110.978 14.5936 112.341 15.0912 113.748 15.0046C118.68 15.0046 118.615 10.7861 118.615 10.7861V1.07252ZM115.413 11.9975C115.024 12.56 114.375 12.8845 113.704 12.8413C113.034 12.8845 112.385 12.56 112.017 11.9975C111.606 11.2836 111.411 10.4832 111.454 9.68273C111.433 8.92555 111.627 8.16837 111.995 7.49773C112.363 6.91362 113.012 6.56748 113.704 6.61075C114.202 6.61075 114.678 6.78382 115.046 7.10832C115.738 7.84387 116.084 8.83902 115.997 9.8558C116.019 10.613 115.824 11.3485 115.413 11.9759V11.9975ZM57.5649 31.7491C57.5649 32.0952 57.4351 32.4414 57.1755 32.6793C56.9375 32.9389 56.5914 33.0688 56.2236 33.0688H54.8823V23.7663C54.7741 22.3384 55.3799 20.9539 56.5048 20.0669C57.5216 19.3314 58.7547 18.9636 60.0095 19.0501C61.3292 19.0285 62.6055 19.5477 63.5142 20.4996C64.4011 21.5813 64.8338 22.9658 64.7689 24.372C64.8338 25.7782 64.4228 27.1844 63.6007 28.331C62.8868 29.2829 61.7402 29.8237 60.5503 29.8021C59.9662 29.8237 59.3605 29.6939 58.8196 29.4559C58.2788 29.1963 57.8461 28.7636 57.5649 28.2444V31.7275V31.7491ZM62.0431 24.5018C62.0863 23.6797 61.8916 22.8793 61.459 22.187C61.0696 21.6462 60.4205 21.3433 59.7715 21.3649C59.1225 21.3433 58.4951 21.6462 58.1057 22.187C57.6947 22.8793 57.5 23.7014 57.5649 24.5018C57.5 25.2806 57.7163 26.0594 58.149 26.7085C58.5384 27.2493 59.1874 27.5522 59.8364 27.5305C60.4854 27.5522 61.0912 27.2493 61.459 26.7085C61.8916 26.0594 62.0863 25.2806 62.0431 24.5018ZM82.4869 28.9584V28.2877C82.0759 28.98 81.4052 29.4776 80.6264 29.6506C79.8476 29.8237 79.0255 29.7588 78.29 29.4559C77.4462 29.1098 76.7323 28.504 76.2564 27.7252C75.6507 26.7301 75.3694 25.5619 75.4343 24.4153C75.3694 23.0307 75.7588 21.6678 76.5376 20.5212C77.403 19.4828 78.7226 18.942 80.0639 19.0285C81.297 18.9203 82.5302 19.2881 83.5037 20.0453C84.607 20.9539 85.2127 22.3384 85.0829 23.7663V29.2396C85.1695 31.7707 83.1792 33.8692 80.6697 33.9557C80.475 33.9557 80.2586 33.9557 80.0639 33.9341C77.9871 33.999 76.1699 32.6144 75.6507 30.6025H78.463C78.9173 31.3597 79.8043 31.7707 80.6913 31.6193C81.1456 31.5111 81.5567 31.2299 81.8595 30.8621C82.2489 30.3213 82.4653 29.6723 82.4653 29.0016M78.0304 24.5234C78.0304 26.319 78.5496 27.2926 79.5663 27.4873C80.4101 27.7469 81.297 27.4656 81.8379 26.7733C82.1191 26.3839 82.2922 25.908 82.3355 25.4321C82.422 24.8263 82.422 24.2206 82.3355 23.6148C82.2489 23.0307 82.0326 22.4899 81.6865 22.0139C81.3403 21.538 80.7995 21.2784 80.2154 21.3217C79.4582 21.2568 78.7659 21.6678 78.4414 22.3384C78.1169 23.0307 77.9655 23.7879 77.9655 24.5451M73.1628 19.764C72.2325 19.3097 71.2157 19.0934 70.1773 19.0934C68.8144 18.942 67.4731 19.4612 66.5212 20.4347C66.0453 21.0837 65.7857 21.8409 65.7641 22.6413H68.3601C68.4034 22.2952 68.5332 21.9707 68.7279 21.7111C69.0956 21.3649 69.5716 21.1919 70.0692 21.2351C70.5235 21.2135 70.9561 21.3 71.3672 21.4731C71.6701 21.6462 71.8431 21.9923 71.7999 22.3384C71.7999 22.6846 71.5619 23.0091 71.2158 23.0956C70.8912 23.2254 70.5451 23.2903 70.199 23.3336L69.2903 23.4418C68.4683 23.5067 67.6678 23.7446 66.9323 24.1124C65.9588 24.6532 65.3963 25.7133 65.4612 26.8382C65.4179 27.682 65.7424 28.504 66.3698 29.0882C67.0188 29.6074 67.8409 29.8886 68.6846 29.8886C74.5041 30.1482 74.4392 26.8382 74.4824 26.1243V22.2952C74.5906 21.2784 74.0714 20.2832 73.1844 19.7857M71.8648 25.6051C71.9297 26.2974 71.6484 26.9897 71.1076 27.444C70.6316 27.7685 70.0692 27.9416 69.5067 27.9416C69.1605 27.9416 68.836 27.8334 68.5764 27.6387C68.2952 27.3791 68.1438 27.0113 68.187 26.6219C68.1654 26.1676 68.4034 25.7133 68.8144 25.497C69.2038 25.3023 69.6149 25.1941 70.0475 25.1292L70.6533 25.021C70.8912 24.9778 71.1292 24.9129 71.3672 24.848C71.5403 24.7831 71.7133 24.6965 71.8864 24.5883L71.8648 25.6051ZM95.2291 20.6294C93.0658 18.4876 89.5827 18.4876 87.4194 20.6294C85.7103 22.8793 85.7103 26.0162 87.4194 28.2661C89.6044 30.3862 93.0441 30.3862 95.2291 28.2661C96.9382 25.9945 96.9382 22.8793 95.2291 20.6294ZM93.109 26.795C92.2653 27.7901 90.7726 27.8983 89.7775 27.0546C89.6909 26.968 89.6044 26.8815 89.5178 26.795C88.6741 25.3455 88.6741 23.5499 89.5178 22.1005C90.3616 21.1053 91.8543 20.9972 92.8494 21.8409C92.936 21.9274 93.0225 22.0139 93.109 22.1005C93.9311 23.5499 93.9311 25.3239 93.109 26.795Z" fill="#5E769A"/>
<path d="M47.0924 17.6678C47.0924 26.2347 36.6434 33.1791 23.7713 33.1791C10.8993 33.1791 0.450195 26.2347 0.450195 17.6678C0.450195 9.10081 10.8993 2.13477 23.7713 2.13477C36.6434 2.1564 47.0924 9.10081 47.0924 17.6678Z" fill="white"/>
<path d="M46.6426 16.9976C40.2606 15.9592 32.2994 19.3773 31.3475 19.7451L30.8283 19.9614L31.0447 19.4422C31.4125 18.4038 31.6288 15.5048 31.499 13.3631C31.3476 11.1997 32.1696 9.12291 32.5374 8.17102L32.6023 7.95469C32.9052 7.13261 33.2729 7.13261 33.7056 7.21914C33.8571 7.21914 34.0085 7.30567 34.1599 7.30567C34.8306 7.30567 35.6527 7.00281 36.2368 6.69993C36.5396 6.5485 36.8209 6.39706 37.1886 6.39706C37.405 6.33216 37.643 6.33216 37.7944 6.24562C38.0107 6.18072 38.2487 6.09419 38.465 6.09419C39.2871 6.02928 39.8712 5.87785 39.8712 5.27211C39.8712 5.20721 39.8712 5.05577 39.7198 4.96924C39.5684 4.90434 39.352 4.8178 38.6814 4.96924H38.6165C38.3136 5.05577 37.643 5.18557 38.2487 4.66636C38.2487 4.57983 38.3136 4.57983 38.3136 4.57983C38.5299 4.42839 38.7679 4.06062 38.9193 3.84428C38.9842 3.77938 39.0708 3.62795 38.9842 3.47651C38.9193 3.0222 38.2487 2.58953 37.4915 2.13522C37.3401 2.07032 37.1886 1.91888 37.0372 1.83235C36.6694 1.52948 35.7825 0.858832 35.3931 1.2266C34.8738 1.68091 32.8619 3.60631 31.6721 4.9476C30.5904 6.18072 29.7034 7.56528 28.9895 9.03637L28.6866 9.70702C28.016 11.1997 26.9775 13.4929 25.9391 15.9375L25.4848 17.0408C25.4199 17.1923 25.4199 17.2572 25.3334 17.4086C24.4464 19.4205 23.2566 21.93 24.0786 23.2713C24.4464 23.8554 25.182 24.2449 26.3069 24.3098C33.208 24.8939 34.9171 24.7641 38.941 24.2232C39.6765 24.1583 40.3472 24.0069 41.1043 23.8555C41.4072 23.7906 41.6885 23.704 41.9913 23.704C42.2077 23.704 42.3591 23.704 42.5971 23.7689C42.9648 23.9204 43.1163 24.1367 43.2677 24.4396L43.4191 24.6559L43.6355 24.4396C44.8902 23.0334 45.7772 21.4757 46.3181 19.8316C46.5344 18.8581 46.6209 17.9062 46.6858 17.4519V16.9327H46.6426V16.9976ZM21.461 16.9976C21.3095 16.6298 21.0932 16.262 21.0066 15.8943C19.9682 13.3631 18.9298 11.0699 18.2592 9.57721L17.9563 8.97147C17.1342 7.26241 16.3338 5.92112 15.2737 4.8827C14.0839 3.62794 12.0936 1.61601 11.5527 1.16171C11.0984 0.793933 10.2114 1.52948 9.9302 1.76745C9.77876 1.83235 9.62733 1.98379 9.47589 2.07032C8.74035 2.52463 8.0697 2.9573 7.98317 3.41161C7.98317 3.56305 7.98317 3.71448 8.04807 3.77938C8.11297 3.93082 8.2644 4.14716 8.41584 4.29859C8.48074 4.36349 8.56728 4.36349 8.63218 4.45002H8.71871C9.30282 4.96923 9.23792 5.12067 9.17302 5.05577C8.87015 4.90434 8.65381 4.83943 8.43747 4.83943H8.37257C7.63703 4.688 7.39906 4.77453 7.26925 4.83943C7.11782 4.90434 7.11782 5.05577 7.11782 5.1423C7.11782 5.72641 7.78846 5.87785 8.61054 5.96438C8.82688 5.96438 9.06485 6.02929 9.28119 6.11582C9.49752 6.20236 9.64896 6.26726 9.88693 6.26726C10.1898 6.33216 10.5576 6.41869 10.8388 6.57013C11.4446 6.873 12.245 7.24077 12.9156 7.15424C13.0671 7.15424 13.2185 7.15424 13.37 7.08934C13.8243 7.02444 14.192 7.02444 14.4733 7.82488L14.5382 8.04122C14.9059 8.9931 15.728 11.0916 15.5766 13.2333C15.4252 15.375 15.6415 18.274 16.0309 19.3124L16.2472 19.8316L15.728 19.6152C14.9059 19.2475 7.26925 15.8943 0.952217 16.9327H0.800781V18.036C1.01712 20.1128 1.9041 22.1897 3.54826 24.0502L3.6997 24.2665L3.85113 24.0502C4.00257 23.8338 4.154 23.7473 4.37034 23.5958C4.88955 23.4444 5.19242 23.5093 5.86306 23.6607C6.59861 23.8122 7.35579 23.9636 8.02643 24.0285C10.2547 24.3314 11.7474 24.4828 13.7377 24.4828C15.4468 24.4828 17.5236 24.3314 20.6389 24.1151C21.7422 24.0502 22.4994 23.6607 22.8671 23.0766C23.6892 21.6704 22.5643 19.2258 21.6124 17.1274C21.5475 17.2139 21.5475 17.0841 21.461 16.9976Z" fill="white"/>
<path d="M42.9212 25.1753C42.7698 25.2402 42.7049 25.3917 42.5535 25.4782L42.4669 25.5431C42.3155 25.608 42.2506 25.7595 42.0992 25.846C41.9477 25.9974 41.7963 26.0623 41.6449 26.2138C41.4934 26.2787 41.342 26.4301 41.2771 26.5166L41.2122 26.6032C41.0607 26.6681 40.9093 26.8195 40.8444 26.906C40.8444 26.906 40.7795 26.906 40.7795 26.9926C40.6281 27.0575 40.4766 27.2089 40.3252 27.2954C40.1738 27.382 40.0223 27.5118 39.8709 27.5983L39.806 27.6632L39.3517 27.8796C39.3517 27.8796 39.2868 27.8796 39.2868 27.9445C38.919 28.1608 38.6161 28.3122 38.2484 28.5502C38.1835 28.5502 38.1835 28.6151 38.1835 28.6151L37.7292 28.8314C37.6426 28.8314 37.6426 28.8963 37.6426 28.8963C37.2749 29.0478 36.9071 29.2641 36.5393 29.4155C36.4744 29.4155 36.4744 29.4804 36.3879 29.4804C36.2364 29.567 36.085 29.6319 35.9336 29.6319C35.8687 29.6319 35.8687 29.6968 35.7821 29.6968C35.6307 29.7617 35.4144 29.8482 35.198 29.9131C34.9817 29.978 34.8302 30.0646 34.5923 30.1295C34.5274 30.1295 34.5274 30.1295 34.4408 30.1944C34.2894 30.2809 34.138 30.2809 33.9865 30.3458C33.9 30.3458 33.9 30.4107 33.8351 30.4107C33.6837 30.4756 33.4673 30.4756 33.3159 30.5621H33.251C33.0346 30.6487 32.8832 30.7136 32.6452 30.7136C32.5803 30.7136 32.5803 30.7136 32.4938 30.7785C32.3424 30.8434 32.1909 30.8434 31.9746 30.9299C31.9097 30.9299 31.8232 30.9299 31.8232 31.0164C31.6717 31.0813 31.4554 31.0813 31.304 31.1679H31.1525C30.9362 31.2328 30.6982 31.2328 30.4819 31.3193H30.3304C30.179 31.4058 29.9627 31.4058 29.8112 31.4058C29.7463 31.4058 29.6598 31.4058 29.5949 31.4707C29.4435 31.4707 29.2271 31.5356 29.0757 31.5356H28.9242C28.7079 31.6005 28.4699 31.6005 28.2536 31.6005H28.1022C27.9507 31.6005 27.7344 31.6654 27.4964 31.6654H27.2801C27.1287 31.6654 26.9123 31.752 26.7609 31.752H26.5445C26.3282 31.752 26.0902 31.8169 25.8739 31.8169H21.8717C21.6553 31.8169 21.4174 31.8169 21.201 31.752H21.1361C20.9198 31.752 20.6818 31.752 20.4655 31.6654H20.2491C20.0977 31.6654 19.8814 31.6654 19.7299 31.6005H19.5136C19.2973 31.6005 19.0593 31.5356 18.8429 31.5356H18.778C18.5617 31.5356 18.4103 31.4707 18.1723 31.4707H17.956C17.8045 31.4707 17.5882 31.4058 17.4368 31.4058H17.307C17.0906 31.3193 16.8526 31.3193 16.6363 31.2544H16.5714C16.42 31.1895 16.2036 31.1895 16.0522 31.103C15.9873 31.103 15.9008 31.103 15.8359 31.0381C15.6844 30.9515 15.533 30.9515 15.3816 30.8866C15.3167 30.8866 15.3167 30.8866 15.2301 30.8217C15.0138 30.7568 14.7758 30.7568 14.6244 30.6703H14.4729C14.3215 30.5838 14.1052 30.5838 13.9537 30.5189C13.8672 30.5189 13.8023 30.454 13.8023 30.454C13.6509 30.3891 13.4994 30.3891 13.348 30.3025C13.2831 30.3025 13.2831 30.3025 13.1966 30.216C12.9802 30.1511 12.8288 30.0646 12.5908 29.9997C12.5259 29.9997 12.5259 29.9997 12.4394 29.9348C12.2879 29.8482 12.1365 29.7833 11.9851 29.7833C11.9202 29.7833 11.8336 29.7184 11.8336 29.7184C11.6822 29.6535 11.5308 29.567 11.3793 29.567C11.3144 29.567 11.3144 29.567 11.2279 29.4804C11.0765 29.4155 10.8601 29.329 10.6438 29.2641C10.5789 29.2641 10.5789 29.1992 10.4923 29.1992L10.038 28.9829C9.97313 28.9829 9.97313 28.918 9.8866 28.918L9.43229 28.7016C9.43229 28.7016 9.34576 28.7016 9.34576 28.6367C9.19432 28.5718 8.97798 28.4853 8.82655 28.3339C8.76165 28.3339 8.76165 28.269 8.67511 28.269C8.52367 28.2041 8.37224 28.1175 8.30734 28.0526C8.2208 28.0526 8.2208 27.9877 8.1559 27.9877L7.70159 27.7714C7.70159 27.7714 7.63669 27.7714 7.63669 27.6849C7.48526 27.62 7.33382 27.4685 7.18239 27.382C7.09585 27.382 7.09585 27.2954 7.03095 27.2954C6.87951 27.2305 6.81461 27.144 6.66318 27.0791C6.59828 27.0791 6.59828 27.0142 6.51174 27.0142C6.36031 26.9277 6.20887 26.8628 6.14397 26.7113C6.14397 26.7113 6.07907 26.7113 6.07907 26.6464C5.92763 26.5599 5.7762 26.4301 5.62476 26.3436C5.55986 26.3436 5.55986 26.2787 5.55986 26.2787C5.49496 26.1921 5.34352 26.1272 5.25699 25.9758C5.19209 25.9758 5.19209 25.9109 5.10555 25.9109C4.95412 25.8244 4.88921 25.6946 4.73778 25.608C4.58634 25.4566 4.43491 25.3917 4.37001 25.2402C4.30511 25.2402 4.30511 25.1753 4.30511 25.1753L3.93733 24.8076L3.87243 24.721C4.02387 24.5047 4.08877 24.4182 4.1753 24.3533C4.47817 24.2018 4.62961 24.2884 5.27862 24.4398C6.01417 24.5912 6.77135 24.7427 7.50689 24.8076C11.5091 25.3268 13.3047 25.4782 20.2924 24.8725C21.6337 24.721 22.5207 24.2667 22.975 23.4663C23.0399 23.4014 23.0399 23.3148 23.1264 23.1634C23.213 23.2283 23.213 23.3148 23.2779 23.4663C23.7322 24.2884 24.684 24.721 25.9604 24.8725C32.9481 25.4566 34.7221 25.3268 38.7243 24.8076C39.4599 24.721 40.217 24.5912 40.9526 24.4398C41.6232 24.2884 41.7747 24.2884 42.0559 24.3533C42.2073 24.4398 42.2722 24.5047 42.5102 24.959C43.0078 25.0888 43.0078 25.0888 42.9212 25.1753C42.9212 25.0888 42.9212 25.0888 42.9212 25.1753ZM43.527 9.94523L43.6784 10.0967C43.8299 10.2481 43.8948 10.3995 44.0462 10.551C44.1111 10.6375 44.1111 10.6375 44.1111 10.7024C44.176 10.7673 44.2625 10.8538 44.2625 10.9187C44.3274 11.0053 44.3274 11.0053 44.3274 11.0702C44.414 11.1351 44.4789 11.2216 44.4789 11.2865C44.5438 11.373 44.5438 11.373 44.5438 11.4379C44.6952 11.7408 44.9115 11.9572 45.063 12.26C45.063 12.3249 45.1495 12.3249 45.1495 12.4115C45.2144 12.498 45.2144 12.5629 45.301 12.6278C45.301 12.6927 45.3659 12.6927 45.3659 12.7792C45.4308 12.8658 45.4308 12.9307 45.5173 12.9956C45.5173 13.0605 45.5822 13.0605 45.5822 13.147C45.6471 13.2984 45.7336 13.5148 45.7985 13.6662C45.7985 13.7311 45.7985 13.7311 45.8851 13.7311C45.8851 13.796 45.95 13.8826 45.95 13.9475C45.95 14.0124 46.0149 14.0989 46.0149 14.0989C46.0149 14.1638 46.0798 14.2503 46.0798 14.3152C46.0798 14.3801 46.1447 14.4667 46.1447 14.4667C46.1447 14.5316 46.2312 14.6181 46.2312 14.683C46.2312 14.7479 46.2312 14.8344 46.2961 14.8344C46.361 14.9859 46.361 15.1373 46.361 15.2887C46.361 15.3536 46.361 15.4402 46.4259 15.4402C46.4259 15.5051 46.4259 15.5916 46.4908 15.6565V16.1108C44.414 15.808 41.1473 15.808 36.4744 17.0843C34.8519 17.755 33.3592 18.1877 31.8015 18.8583C32.1044 17.3656 32.1693 15.0724 32.0179 13.3633C31.8664 11.4379 32.6236 9.51255 33.0563 8.4525L33.1212 8.23616C33.2077 8.08472 33.2077 7.93329 33.3375 7.86839H33.5539C33.7053 7.86839 33.9216 7.93329 34.0731 7.93329C35.0466 8.01982 36.1499 7.41408 36.4528 7.26264C36.6691 7.11121 36.972 7.04631 37.2749 6.95977C37.4912 6.89487 37.7292 6.80834 38.0104 6.74344C38.1618 6.67854 38.3133 6.67854 38.5296 6.67854C38.7459 6.67854 39.0488 6.61363 39.3517 6.5271C40.9958 7.56552 42.402 8.69047 43.527 9.94523ZM35.6523 1.33501C35.8687 1.18358 36.3879 1.39992 37.0585 1.91913C37.21 2.07056 37.3614 2.13546 37.5128 2.222C37.9671 2.52487 38.8541 3.04408 38.919 3.41185C38.919 3.47675 38.919 3.56329 38.8541 3.62819V3.69309C38.7027 3.90943 38.4863 4.29883 38.3349 4.36373L38.1835 4.51517C37.8806 4.81804 37.4479 5.12091 37.2965 5.12091C36.8422 5.05601 36.5609 4.96948 36.1932 4.81804C36.4095 3.93106 36.7124 4.14739 37.2965 4.45026C37.2965 4.29883 37.2316 4.23393 37.2316 4.0825L37.6859 3.86616L37.1667 3.80126C37.1018 3.43348 37.1018 3.13061 37.1018 2.76284C36.9503 2.97918 36.9503 3.21715 36.8854 3.36858C36.8205 3.52002 36.6691 3.67145 36.5826 3.73635L36.2797 3.43348C36.1283 3.28205 35.9119 3.13061 35.7605 3.06571C35.7605 3.13061 35.6956 3.13061 35.6956 3.13061C36.2148 3.86616 36.2148 4.01759 35.6307 4.68824C35.1115 5.27235 34.5923 5.72666 34.0731 6.24586C34.4408 6.4622 34.8951 6.31076 35.4144 5.79156C36.085 5.05601 36.085 5.05601 36.972 5.42378L37.1234 5.48869C37.4912 5.64012 37.7075 5.42378 38.0753 5.27235C38.2916 5.20745 38.5945 5.05601 38.8108 5.05601H38.8974C39.4166 4.96948 39.7195 4.96948 39.7844 5.05601C39.7844 5.05601 39.8493 5.12091 39.8493 5.20744C39.8493 5.57522 39.5464 5.72666 38.5945 5.81319C38.3782 5.81319 38.1402 5.87809 37.859 5.96462C37.6426 6.02952 37.4912 6.11606 37.2532 6.11606C36.8854 6.2026 36.5826 6.2675 36.3013 6.48384C35.6956 6.78671 34.96 7.08958 34.3759 7.08958C34.2245 7.08958 34.0731 7.08958 34.0082 7.02468C33.489 6.95978 33.0563 6.95977 32.6669 7.91165L32.602 8.12799C32.2342 9.16641 31.4121 11.2432 31.4987 13.4066C31.6501 15.57 31.4121 18.4689 31.0443 19.4208L30.5251 20.3943L31.4987 19.94C31.5636 19.8535 40.044 16.1541 46.6422 17.1925V17.4954C46.5773 18.1011 46.4908 18.9881 46.2745 19.8751C45.8202 21.5193 44.9332 23.0769 43.6784 24.4182C43.527 24.0504 43.3107 23.8124 42.8563 23.6826C42.64 23.5961 42.402 23.5312 42.1857 23.5312C41.8828 23.5312 41.5151 23.5961 41.2338 23.6826C40.4983 23.8341 39.8276 23.9855 39.0705 24.0504C35.1331 24.5696 33.3592 24.721 26.4364 24.1153C25.398 24.0504 24.7273 23.661 24.3595 23.1418C23.624 21.887 24.7273 19.4208 25.6143 17.4305C25.8306 16.9113 26.0686 16.3921 26.2849 15.9378C27.3883 13.1903 28.5132 10.7457 29.1839 9.31784L29.3353 9.01497C30.1574 7.30591 30.9578 6.05116 31.9313 4.92621C33.1212 3.71472 35.1331 1.76769 35.6523 1.33501ZM23.7754 2.67631C26.7392 2.67631 29.5733 3.04408 32.0828 3.71472C31.7799 4.01759 31.5636 4.23393 31.3472 4.5368C30.2006 5.81319 29.2704 7.26265 28.5997 8.84191L28.4483 9.14478C27.7777 10.6375 26.5878 13.0821 25.5494 15.8296C25.398 16.2839 25.1816 16.7166 24.9436 17.2358C24.4244 18.3391 23.9052 19.5506 23.6024 20.7188C23.2995 19.5289 22.7154 18.3391 22.2611 17.2358L21.6553 15.8296C20.552 13.0821 19.4271 10.6375 18.7564 9.14478L18.605 8.84191C17.7829 7.06794 16.8959 5.72666 15.8575 4.5368C15.6412 4.32047 15.4032 4.08249 15.1869 3.80126C17.7613 3.04408 20.6385 2.67631 23.7754 2.67631ZM7.42036 5.12091C7.48526 5.05601 7.87466 5.05601 8.30734 5.12091H8.45877L9.12942 5.33725C9.49719 5.55358 9.71353 5.70502 10.0813 5.55358C10.1462 5.55358 10.2327 5.48869 10.2327 5.48869C11.1197 5.18581 11.1197 5.18581 11.7904 5.85645C12.3096 6.44056 12.7422 6.5271 13.1317 6.31076C12.6124 5.79155 12.0283 5.27235 11.574 4.75314C10.9899 4.0825 10.9899 3.86616 11.5091 3.19551C11.5091 3.10898 11.4442 3.10898 11.4442 3.10898C11.2928 3.26042 11.0765 3.32532 10.925 3.47675L10.6221 3.77962C10.4707 3.62819 10.3193 3.56329 10.3193 3.41185C10.2544 3.26041 10.2544 3.04408 10.1029 2.82774C10.1029 3.13061 10.038 3.49839 10.038 3.86616L9.51883 4.01759L9.97313 4.23393L9.90823 4.5368C10.4274 4.16903 10.7952 3.95269 11.0115 4.90457C10.6438 5.05601 10.276 5.05601 9.90823 5.20744C9.7568 5.27234 9.30249 4.90457 8.93472 4.6017C8.93472 4.5368 8.86981 4.5368 8.86981 4.5368L8.65348 4.32047C8.50204 4.16903 8.43714 3.95269 8.35061 3.86616V3.80126C8.2857 3.73636 8.2857 3.64982 8.2857 3.58492C8.35061 3.21715 9.25922 2.6114 9.69189 2.39507C9.84333 2.33017 9.99477 2.17873 10.1462 2.09219C10.7519 1.57298 11.3361 1.27012 11.5524 1.48645C12.0716 1.94076 13.997 3.86616 15.2734 5.12091C16.2469 6.15933 17.0473 7.50061 17.8694 9.20968L18.0209 9.51255C18.6915 11.0053 19.8814 13.4499 20.9198 16.1108C21.0712 16.5651 21.2876 17.0843 21.5904 17.6036C22.4774 19.6155 23.6024 22.0601 22.8452 23.3148C22.5423 23.899 21.8068 24.2018 20.7683 24.2884C13.8672 24.8941 12.1581 24.7427 8.13427 24.2235C7.39872 24.1586 6.72808 24.0071 5.9709 23.8557C5.30025 23.7043 4.93248 23.6394 4.34837 23.7908C4.0455 23.8557 3.89406 24.0937 3.74263 24.31C2.2499 22.536 1.29802 20.5241 1.06005 18.3607V17.3872C7.67996 16.2839 15.6844 19.9833 15.771 20.0698L16.7445 20.5241L16.3767 19.5506C16.0089 18.5771 15.771 15.6781 15.9224 13.5364C16.0738 11.3947 15.2518 9.29621 14.8191 8.25779L14.7542 8.04146C14.3864 7.06794 13.9321 7.06794 13.4129 7.15448C13.2615 7.15448 13.11 7.21938 13.0451 7.21938C12.4394 7.21938 11.6389 6.91651 11.1197 6.63527C10.8168 6.48383 10.4491 6.3324 10.1462 6.2675C9.92987 6.2026 9.77843 6.2026 9.56209 6.11606C9.34576 6.05116 9.10779 5.96462 8.82655 5.96462C7.85303 5.81319 7.57179 5.66175 7.57179 5.35888C7.35546 5.18581 7.35546 5.12091 7.42036 5.12091ZM8.0261 6.592C8.17754 6.65691 8.39387 6.6569 8.54531 6.6569C8.69674 6.6569 8.91308 6.7218 9.06452 6.7218C9.28086 6.7867 9.51882 6.87324 9.80006 6.93814C10.1029 7.00304 10.3193 7.08958 10.6221 7.24102C10.925 7.39245 12.0283 7.97656 13.0018 7.91165C13.1533 7.91165 13.3696 7.91166 13.5211 7.84676H13.7374C13.7374 7.84676 13.8023 7.91166 13.9537 8.21453L14.0186 8.43087C14.3864 9.46929 15.2085 11.3947 15.0571 13.3417C14.9056 15.0508 14.9705 17.3439 15.2734 18.8367C13.0451 17.8632 6.66318 15.57 1.01678 16.457C1.08168 15.8729 1.16822 15.3536 1.31966 14.7479V14.683C1.31966 14.5965 1.38456 14.5316 1.38456 14.4667C1.38456 14.4018 1.44946 14.3152 1.44946 14.2503V14.1854C1.60089 13.7311 1.81723 13.2335 2.0552 12.7792C2.0552 12.7792 2.0552 12.7143 2.1201 12.7143C2.1201 12.7143 2.1201 12.6494 2.185 12.6494C2.2499 12.5845 2.2499 12.498 2.33644 12.4331C3.41812 10.1616 5.43006 8.23617 8.0261 6.592ZM40.3252 6.07279C40.4766 5.85645 40.6281 5.61848 40.6281 5.33725C40.6281 5.03438 40.4766 4.75314 40.2603 4.51517C40.044 4.36373 39.806 4.29883 39.5248 4.29883C39.5248 4.29883 39.5248 4.2123 39.6113 4.2123C39.7627 3.99596 39.8276 3.69309 39.7627 3.39021C39.6113 2.65467 38.6594 2.04893 37.9888 1.61625C37.8373 1.55135 37.6859 1.46482 37.621 1.39992C36.2797 0.296597 35.5442 0.426401 35.1764 0.729273C34.8086 1.03214 33.9216 1.91913 32.9481 2.89264C30.1141 2.1571 26.9988 1.70279 23.8187 1.70279C20.4871 1.70279 17.2853 2.15709 14.3864 2.95754C13.4129 1.98402 12.461 1.09705 12.0716 0.729273C11.7038 0.426401 10.8817 0.210063 9.62699 1.39992C9.56209 1.46482 9.41066 1.55135 9.25922 1.61625C8.58858 1.98403 7.61506 2.58977 7.48526 3.39021C7.42036 3.69309 7.48526 3.99596 7.63669 4.2123C7.63669 4.2123 7.63669 4.29883 7.72323 4.29883C7.42036 4.29883 7.20402 4.36373 6.98768 4.51517C6.77135 4.73151 6.61991 4.96947 6.61991 5.33725C6.61991 5.79155 6.77135 6.00789 6.98768 6.22423C2.68258 8.97171 0 12.909 0 17.1492V18.1228C0 27.1873 9.28086 34.5427 23.7754 34.5427C38.3349 34.5427 47.5509 27.1873 47.5509 18.1228V17.2358C47.5292 12.8441 44.7817 8.9068 40.3252 6.07279Z" fill="#5E769A"/>
</g>
</svg>
