<svg width="86" height="36" viewBox="0 0 86 36" fill="none" xmlns="http://www.w3.org/2000/svg">
<g opacity="0.9">
<path fill-rule="evenodd" clip-rule="evenodd" d="M85.3065 18.5614C85.3065 12.574 82.3681 7.84961 76.7521 7.84961C71.1361 7.84961 67.7002 12.574 67.7002 18.5147C67.7002 25.5545 71.7285 29.1096 77.5104 29.1096C80.3303 29.1096 82.4629 28.4781 84.0743 27.5893V22.9117C82.2711 23.7924 80.2802 24.2335 78.2687 24.198C75.9702 24.198 73.9323 23.4028 73.6716 20.643H85.2591C85.2591 20.339 85.3065 19.1228 85.3065 18.5614ZM73.6005 16.3396C73.6005 13.6967 75.2356 12.5974 76.7284 12.5974C78.1739 12.5974 79.7142 13.6967 79.7142 16.3396H73.6005Z" fill="#5E769A"/>
<path fill-rule="evenodd" clip-rule="evenodd" d="M58.5504 7.84966C56.8217 7.84303 55.1574 8.49675 53.906 9.67395L53.5979 8.22387H48.3848V35.4946L54.3088 34.255L54.3325 27.6362C55.1856 28.2443 56.4415 29.1096 58.5267 29.1096C62.7683 29.1096 66.6308 25.7417 66.6308 18.3276C66.6071 11.545 62.6973 7.84966 58.5504 7.84966ZM57.1287 23.9642C55.7306 23.9642 54.9012 23.473 54.3325 22.8649L54.3088 14.1879C54.9249 13.5096 55.778 13.0419 57.1287 13.0419C59.285 13.0419 60.7779 15.4275 60.7779 18.4913C60.7779 21.6254 59.3087 23.9642 57.1287 23.9642Z" fill="#5E769A"/>
<path fill-rule="evenodd" clip-rule="evenodd" d="M40.2373 6.4688L46.185 5.20583V0.458008L40.2373 1.69759V6.4688Z" fill="#5E769A"/>
<path d="M46.185 8.24707H40.2373V28.7118H46.185V8.24707Z" fill="#5E769A"/>
<path fill-rule="evenodd" clip-rule="evenodd" d="M33.8569 9.97639L33.4778 8.24566H28.3594V28.7104H34.2834V14.8412C35.6815 13.0403 38.0511 13.3677 38.7857 13.625V8.24566C38.0274 7.965 35.255 7.45046 33.8569 9.97639Z" fill="#5E769A"/>
<path fill-rule="evenodd" clip-rule="evenodd" d="M22.0097 3.16992L16.2278 4.38611L16.2041 23.1201C16.2041 26.5816 18.8344 29.1309 22.3414 29.1309C24.2845 29.1309 25.7063 28.7801 26.4882 28.3591V23.6113C25.73 23.9153 21.986 24.9912 21.986 21.5297V13.2269H26.4882V8.24518H21.986L22.0097 3.16992Z" fill="#5E769A"/>
<path fill-rule="evenodd" clip-rule="evenodd" d="M5.99513 14.1884C5.99513 13.2763 6.75341 12.9255 8.00931 12.9255C10.0593 12.9678 12.0712 13.4802 13.886 14.4223V8.92608C12.0154 8.19791 10.0201 7.83262 8.00931 7.85022C3.19899 7.85022 0 10.3294 0 14.4691C0 20.9243 9.00455 19.8952 9.00455 22.6784C9.00455 23.7543 8.0567 24.1051 6.72972 24.1051C4.76293 24.1051 2.25114 23.3099 0.260658 22.234V27.8004C2.30324 28.6728 4.50413 29.1263 6.72972 29.1336C11.6585 29.1336 15.0471 26.7246 15.0471 22.5381C15.0234 15.5684 5.99513 16.8079 5.99513 14.1884Z" fill="#5E769A"/>
</g>
</svg>
