<svg width="137" height="36" viewBox="0 0 137 36" fill="none" xmlns="http://www.w3.org/2000/svg">
<g opacity="0.9">
<path d="M93.2524 27.6055C92.8291 28.3554 92.2187 28.9777 91.4831 29.4092C90.7475 29.8406 89.913 30.0659 89.0644 30.0621C86.3106 30.0621 83.4421 27.8979 83.4421 23.8035C83.4421 19.7091 86.3106 17.6619 89.0644 17.6619C89.8983 17.6287 90.7258 17.8225 91.4618 18.2234C92.1979 18.6244 92.8159 19.2179 93.2524 19.9431L93.3098 19.8846L97.7847 16.0241C96.7154 14.6964 95.3649 13.633 93.8347 12.9137C92.3045 12.1945 90.6344 11.8381 88.9497 11.8713C83.0979 11.8713 77.0166 15.9072 77.0166 23.862C77.0166 31.8169 83.0405 35.8528 88.8923 35.7943C90.5823 35.8076 92.2545 35.4426 93.791 34.725C95.3275 34.0074 96.6908 32.9548 97.7847 31.6414L93.2524 27.6055Z" fill="#5E769A"/>
<path d="M132.323 26.611V0.757812H125.955V26.611C125.955 34.7413 130.086 36.4961 136.97 35.2093L136.741 30.296C133.7 30.8224 132.323 30.1205 132.323 26.611Z" fill="#5E769A"/>
<path d="M122.016 31.5252C119.951 31.7007 120.008 30.5893 120.008 28.6591V20.7043C120.008 14.1532 115.189 11.8721 109.509 11.8721C106.526 11.8721 102.912 12.574 100.158 14.2117L102.338 18.5986C104.286 17.5674 106.454 17.0448 108.649 17.0778C110.886 17.0778 113.812 17.7212 113.812 20.4703V21.7571C112.148 20.6458 109.911 20.2948 107.903 20.2948C102.969 20.2948 99.0105 22.927 99.24 28.4836C99.3547 32.8705 103.141 35.6196 107.329 35.6196C110.198 35.6196 113.697 34.5083 115.017 31.7007C115.017 35.7366 118.689 35.9121 122.073 35.2102L122.016 31.5252ZM108.649 30.5308C107.157 30.5308 105.723 29.712 105.608 28.0742C105.379 25.8515 107.042 24.6817 109.05 24.5647C110.679 24.5239 112.281 24.9934 113.64 25.91V27.0798H113.697C113.468 29.478 110.771 30.5308 108.649 30.5308Z" fill="#5E769A"/>
<path d="M63.8569 11.8727C58.0051 11.9312 52.1533 15.9086 52.1533 23.805C52.1533 31.7013 58.1199 35.7372 64.029 35.7372C69.9382 35.7372 75.7326 31.7598 75.7326 23.805C75.7326 15.8501 69.8234 11.8142 63.8569 11.8727ZM63.9143 29.9466C61.2178 29.9466 58.5788 27.8994 58.5788 23.805C58.5788 19.7105 61.2752 17.6633 64.029 17.6633C66.7828 17.6633 69.3644 19.7105 69.3644 23.805C69.3644 27.8994 66.668 30.005 63.9143 29.9466Z" fill="#5E769A"/>
<path d="M46.5859 26.611V0.757812H40.2178V26.611C40.2178 34.7413 44.3484 36.4961 51.2329 35.2093L51.0034 30.296C47.9628 30.8224 46.5859 30.1205 46.5859 26.611Z" fill="#5E769A"/>
<path d="M24.2677 30.881C22.2597 31.115 22.2024 29.8867 22.2024 27.664V0.816406H15.7195V13.3921C7.97449 9.47314 0 14.9129 0 23.862C0 30.2376 3.55696 35.9113 10.2693 35.7358C11.6854 35.7494 13.0746 35.3417 14.2668 34.5625C15.4591 33.7833 16.4025 32.6665 16.9816 31.3489V31.9339C17.0964 35.8528 21.1123 35.9113 24.3251 35.1509L24.2677 30.881ZM16.0063 24.7394H15.949C15.949 27.4885 14.1705 29.8867 11.3593 29.8867C7.91711 29.8867 6.48285 27.0791 6.48285 23.8036C6.48285 18.1299 11.3593 16.1412 16.0063 18.8903V24.7394Z" fill="#5E769A"/>
<path d="M34.8649 18.8906H28.4395V25.4417H34.8649V18.8906Z" fill="#5E769A"/>
</g>
</svg>
